<?xml version="1.0" encoding="UTF-8" standalone="no"?><svg xmlns="http://www.w3.org/2000/svg" xmlns:xlink="http://www.w3.org/1999/xlink" contentStyleType="text/css" height="416px" preserveAspectRatio="none" style="width:641px;height:416px;background:#FFFFFF;" version="1.1" viewBox="0 0 641 416" width="641px" zoomAndPan="magnify"><defs/><g><rect fill="none" height="25.6406" id="_title" style="stroke:none;stroke-width:1.0;" width="623" x="5" y="5"/><text fill="#000000" font-family="sans-serif" font-size="14" font-weight="bold" lengthAdjust="spacing" textLength="613" x="10" y="22.6738">Calypsonet - calypsonet-terminal-calypso-crypto-asymmetric-java-api - 0.1.+ (2022-11-29)</text><!--MD5=[7442f3b126ee602ae02566c1a49e158a]
cluster api--><g id="cluster_api"><path d="M45.5,42.6406 L399.5,42.6406 A3.75,3.75 0 0 1 402,45.1406 L409,64.2813 L600.5,64.2813 A2.5,2.5 0 0 1 603,66.7813 L603,407.1406 A2.5,2.5 0 0 1 600.5,409.6406 L45.5,409.6406 A2.5,2.5 0 0 1 43,407.1406 L43,45.1406 A2.5,2.5 0 0 1 45.5,42.6406 " fill="#F8F9F9" style="stroke:#000000;stroke-width:1.5;"/><line style="stroke:#000000;stroke-width:1.5;" x1="43" x2="409" y1="64.2813" y2="64.2813"/><text fill="#000000" font-family="sans-serif" font-size="14" font-weight="bold" lengthAdjust="spacing" textLength="353" x="47" y="57.3145">org.calypsonet.terminal.calypso.crypto.asymmetric</text></g><!--MD5=[f7e0e2453c87923036c1ac2adfb9cbf0]
cluster spi--><g id="cluster_spi"><path d="M69.5,84.6406 L91.5,84.6406 A3.75,3.75 0 0 1 94,87.1406 L101,106.2813 L576.5,106.2813 A2.5,2.5 0 0 1 579,108.7813 L579,383.1406 A2.5,2.5 0 0 1 576.5,385.6406 L69.5,385.6406 A2.5,2.5 0 0 1 67,383.1406 L67,87.1406 A2.5,2.5 0 0 1 69.5,84.6406 " fill="#F2F3F4" style="stroke:#000000;stroke-width:1.5;"/><line style="stroke:#000000;stroke-width:1.5;" x1="67" x2="101" y1="106.2813" y2="106.2813"/><text fill="#000000" font-family="sans-serif" font-size="14" font-weight="bold" lengthAdjust="spacing" textLength="21" x="71" y="99.3145">spi</text></g><!--MD5=[24467aae8567417cbdd61418ca133705]
class AsymmetricCryptoTransactionManagerFactorySpi--><g id="elem_AsymmetricCryptoTransactionManagerFactorySpi"><rect codeLine="55" fill="#FEFECE" height="63.6406" id="AsymmetricCryptoTransactionManagerFactorySpi" rx="2.5" ry="2.5" style="stroke:#D4AC0D;stroke-width:2.0;" width="480" x="83" y="118.6406"/><ellipse cx="156.25" cy="134.6406" fill="#B4A7E5" rx="11" ry="11" style="stroke:#181818;stroke-width:1.0;"/><path d="M157.2031,131.2813 L157.2031,137.9375 L158.9219,137.9375 Q159.5313,137.9375 159.7969,138.1719 Q160.0625,138.4063 160.0625,138.7969 Q160.0625,139.1719 159.7969,139.4063 Q159.5313,139.6406 158.9219,139.6406 L153.7813,139.6406 Q153.1719,139.6406 152.9063,139.4063 Q152.6406,139.1719 152.6406,138.7813 Q152.6406,138.4063 152.9063,138.1719 Q153.1719,137.9375 153.7813,137.9375 L155.5,137.9375 L155.5,131.2813 L153.7813,131.2813 Q153.1719,131.2813 152.9063,131.0469 Q152.6406,130.8125 152.6406,130.4219 Q152.6406,130.0469 152.9063,129.8125 Q153.1719,129.5781 153.7813,129.5781 L158.9219,129.5781 Q159.5313,129.5781 159.7969,129.8125 Q160.0625,130.0469 160.0625,130.4219 Q160.0625,130.8125 159.7969,131.0469 Q159.5313,131.2813 158.9219,131.2813 L157.2031,131.2813 Z " fill="#000000"/><ellipse cx="181.75" cy="134.1406" fill="#84BE84" rx="3" ry="3" style="stroke:#038048;stroke-width:1.0;"/><text fill="#000000" font-family="sans-serif" font-size="14" font-style="italic" lengthAdjust="spacing" textLength="314" x="187.75" y="139.4941">AsymmetricCryptoTransactionManagerFactorySpi</text><line style="stroke:#D4AC0D;stroke-width:2.0;" x1="84" x2="562" y1="150.6406" y2="150.6406"/><line style="stroke:#D4AC0D;stroke-width:2.0;" x1="84" x2="562" y1="158.6406" y2="158.6406"/><ellipse cx="94" cy="171.9609" fill="#84BE84" rx="3" ry="3" style="stroke:#038048;stroke-width:1.0;"/><text fill="#000000" font-family="sans-serif" font-size="14" lengthAdjust="spacing" textLength="454" x="103" y="175.3145">AsymmetricCryptoTransactionManagerSpi createTransactionManager ()</text></g><!--MD5=[7c2139d591ba70866ea0b3c9f91a5e38]
class AsymmetricCryptoTransactionManagerSpi--><g id="elem_AsymmetricCryptoTransactionManagerSpi"><rect codeLine="58" fill="#FEFECE" height="110.5625" id="AsymmetricCryptoTransactionManagerSpi" rx="2.5" ry="2.5" style="stroke:#D4AC0D;stroke-width:2.0;" width="456" x="95" y="258.6406"/><ellipse cx="180.25" cy="274.6406" fill="#B4A7E5" rx="11" ry="11" style="stroke:#181818;stroke-width:1.0;"/><path d="M181.2031,271.2813 L181.2031,277.9375 L182.9219,277.9375 Q183.5313,277.9375 183.7969,278.1719 Q184.0625,278.4063 184.0625,278.7969 Q184.0625,279.1719 183.7969,279.4063 Q183.5313,279.6406 182.9219,279.6406 L177.7813,279.6406 Q177.1719,279.6406 176.9063,279.4063 Q176.6406,279.1719 176.6406,278.7813 Q176.6406,278.4063 176.9063,278.1719 Q177.1719,277.9375 177.7813,277.9375 L179.5,277.9375 L179.5,271.2813 L177.7813,271.2813 Q177.1719,271.2813 176.9063,271.0469 Q176.6406,270.8125 176.6406,270.4219 Q176.6406,270.0469 176.9063,269.8125 Q177.1719,269.5781 177.7813,269.5781 L182.9219,269.5781 Q183.5313,269.5781 183.7969,269.8125 Q184.0625,270.0469 184.0625,270.4219 Q184.0625,270.8125 183.7969,271.0469 Q183.5313,271.2813 182.9219,271.2813 L181.2031,271.2813 Z " fill="#000000"/><ellipse cx="205.75" cy="274.1406" fill="#84BE84" rx="3" ry="3" style="stroke:#038048;stroke-width:1.0;"/><text fill="#000000" font-family="sans-serif" font-size="14" font-style="italic" lengthAdjust="spacing" textLength="266" x="211.75" y="279.4941">AsymmetricCryptoTransactionManagerSpi</text><line style="stroke:#D4AC0D;stroke-width:2.0;" x1="96" x2="550" y1="290.6406" y2="290.6406"/><line style="stroke:#D4AC0D;stroke-width:2.0;" x1="96" x2="550" y1="298.6406" y2="298.6406"/><ellipse cx="106" cy="311.9609" fill="#84BE84" rx="3" ry="3" style="stroke:#038048;stroke-width:1.0;"/><text fill="#000000" font-family="sans-serif" font-size="14" lengthAdjust="spacing" textLength="319" x="115" y="315.3145">byte[] extractCardPublicKey (byte[] cardCertificate)</text><ellipse cx="106" cy="327.6016" fill="#84BE84" rx="3" ry="3" style="stroke:#038048;stroke-width:1.0;"/><text fill="#000000" font-family="sans-serif" font-size="14" lengthAdjust="spacing" textLength="357" x="115" y="330.9551">void initTerminalSessionSignature (byte[] cardPublicKey)</text><ellipse cx="106" cy="343.2422" fill="#84BE84" rx="3" ry="3" style="stroke:#038048;stroke-width:1.0;"/><text fill="#000000" font-family="sans-serif" font-size="14" lengthAdjust="spacing" textLength="354" x="115" y="346.5957">void updateTerminalSessionSignature (byte[] cardApdu)</text><ellipse cx="106" cy="358.8828" fill="#84BE84" rx="3" ry="3" style="stroke:#038048;stroke-width:1.0;"/><text fill="#000000" font-family="sans-serif" font-size="14" lengthAdjust="spacing" textLength="430" x="115" y="362.2363">boolean isCardSessionSignatureValid (byte[] cardSessionSignature)</text></g><!--MD5=[0f43703e6c17e1aae30c4ccbb0ca4e62]
link AsymmetricCryptoTransactionManagerFactorySpi to AsymmetricCryptoTransactionManagerSpi--><g id="link_AsymmetricCryptoTransactionManagerFactorySpi_AsymmetricCryptoTransactionManagerSpi"><path codeLine="69" d="M323,182.7796 C323,202.8036 323,229.4726 323,253.4716 " fill="none" id="AsymmetricCryptoTransactionManagerFactorySpi-to-AsymmetricCryptoTransactionManagerSpi" style="stroke:#3498DB;stroke-width:2.0;stroke-dasharray:7.0,7.0;"/><polygon fill="#3498DB" points="323,258.5486,327,249.5486,323,253.5486,319,249.5486,323,258.5486" style="stroke:#3498DB;stroke-width:2.0;"/><polygon fill="#000000" points="328,225.9023,330.9389,216.8573,325.0611,216.8573,328,225.9023" style="stroke:#000000;stroke-width:1.0;"/><text fill="#000000" font-family="sans-serif" font-size="13" lengthAdjust="spacing" textLength="40" x="337" y="225.4092">provide</text></g><!--MD5=[d1323026cfda51cd213f63e85f5eef34]
@startuml
title
    Calypsonet - calypsonet-terminal-calypso-crypto-asymmetric-java-api - 0.1.+ (2022-11-29)
end title

' == THEME ==

'Couleurs issues de : https://htmlcolorcodes.com/fr/tableau-de-couleur/tableau-de-couleur-design-plat/
!define C_GREY1 F8F9F9
!define C_GREY2 F2F3F4
!define C_GREY3 E5E7E9
!define C_GREY4 D7DBDD
!define C_GREY5 CACFD2
!define C_GREY6 BDC3C7
!define C_LINK 3498DB
!define C_USE 27AE60

' - - Styles that don't work with new version of plantuml - -
skinparam stereotypeABorderColor #A9DCDF
skinparam stereotypeIBorderColor #B4A7E5
skinparam stereotypeCBorderColor #ADD1B2
skinparam stereotypeEBorderColor #EB93DF
' - - END - -

skinparam ClassBorderThickness 2
skinparam ArrowThickness 2

' Yellow
skinparam ClassBackgroundColor #FEFECE
skinparam ClassBorderColor #D4AC0D
' Red
skinparam ClassBackgroundColor<<red>> #FDEDEC
skinparam ClassBorderColor<<red>> #E74C3C
hide <<red>> stereotype
' Purple
skinparam ClassBackgroundColor<<purple>> #F4ECF7
skinparam ClassBorderColor<<purple>> #8E44AD
hide <<purple>> stereotype
' blue
skinparam ClassBackgroundColor<<blue>> #EBF5FB
skinparam ClassBorderColor<<blue>> #3498DB
hide <<blue>> stereotype
' Green
skinparam ClassBackgroundColor<<green>> #E9F7EF
skinparam ClassBorderColor<<green>> #27AE60
hide <<green>> stereotype
' Grey
skinparam ClassBackgroundColor<<grey>> #EAECEE
skinparam ClassBorderColor<<grey>> #2C3E50
hide <<grey>> stereotype

' == CONTENT ==

package "org.calypsonet.terminal.calypso.crypto.asymmetric" as api {
    package spi {
        +interface AsymmetricCryptoTransactionManagerFactorySpi {
            +AsymmetricCryptoTransactionManagerSpi createTransactionManager ()
        }
        +interface AsymmetricCryptoTransactionManagerSpi {
            +byte[] extractCardPublicKey (byte[] cardCertificate)
            +void initTerminalSessionSignature (byte[] cardPublicKey)
            +void updateTerminalSessionSignature (byte[] cardApdu)
            +boolean isCardSessionSignatureValid (byte[] cardSessionSignature)
        }
    }
}

' Associations

AsymmetricCryptoTransactionManagerFactorySpi ..> AsymmetricCryptoTransactionManagerSpi #C_LINK : provide >

' == LAYOUT ==

'CardSecuritySetting -[hidden]- CalypsoSam

' == STYLE ==

package api #C_GREY1 {}
package spi #C_GREY2 {}

@enduml

@startuml
title
    Calypsonet - calypsonet-terminal-calypso-crypto-asymmetric-java-api - 0.1.+ (2022-11-29)
end title



skinparam stereotypeABorderColor #A9DCDF
skinparam stereotypeIBorderColor #B4A7E5
skinparam stereotypeCBorderColor #ADD1B2
skinparam stereotypeEBorderColor #EB93DF

skinparam ClassBorderThickness 2
skinparam ArrowThickness 2

skinparam ClassBackgroundColor #FEFECE
skinparam ClassBorderColor #D4AC0D
skinparam ClassBackgroundColor<<red>> #FDEDEC
skinparam ClassBorderColor<<red>> #E74C3C
hide <<red>> stereotype
skinparam ClassBackgroundColor<<purple>> #F4ECF7
skinparam ClassBorderColor<<purple>> #8E44AD
hide <<purple>> stereotype
skinparam ClassBackgroundColor<<blue>> #EBF5FB
skinparam ClassBorderColor<<blue>> #3498DB
hide <<blue>> stereotype
skinparam ClassBackgroundColor<<green>> #E9F7EF
skinparam ClassBorderColor<<green>> #27AE60
hide <<green>> stereotype
skinparam ClassBackgroundColor<<grey>> #EAECEE
skinparam ClassBorderColor<<grey>> #2C3E50
hide <<grey>> stereotype


package "org.calypsonet.terminal.calypso.crypto.asymmetric" as api {
    package spi {
        +interface AsymmetricCryptoTransactionManagerFactorySpi {
            +AsymmetricCryptoTransactionManagerSpi createTransactionManager ()
        }
        +interface AsymmetricCryptoTransactionManagerSpi {
            +byte[] extractCardPublicKey (byte[] cardCertificate)
            +void initTerminalSessionSignature (byte[] cardPublicKey)
            +void updateTerminalSessionSignature (byte[] cardApdu)
            +boolean isCardSessionSignatureValid (byte[] cardSessionSignature)
        }
    }
}


AsymmetricCryptoTransactionManagerFactorySpi ..> AsymmetricCryptoTransactionManagerSpi #3498DB : provide >




package api #F8F9F9 {}
package spi #F2F3F4 {}

@enduml

PlantUML version 1.2022.12(Sun Oct 23 20:12:26 CEST 2022)
(GPL source distribution)
Java Runtime: OpenJDK Runtime Environment
JVM: OpenJDK 64-Bit Server VM
Default Encoding: Cp1252
Language: fr
Country: FR
--></g></svg>