<?xml version="1.0" encoding="us-ascii" standalone="no"?><svg xmlns="http://www.w3.org/2000/svg" xmlns:xlink="http://www.w3.org/1999/xlink" contentStyleType="text/css" height="971px" preserveAspectRatio="none" style="width:1651px;height:971px;background:#FFFFFF;" version="1.1" viewBox="0 0 1651 971" width="1651px" zoomAndPan="magnify"><defs/><g><text fill="#000000" font-family="sans-serif" font-size="14" font-weight="bold" lengthAdjust="spacing" textLength="605" x="516" y="25.1074">Calypsonet - calypsonet-terminal-calypso-crypto-symmetric-java-api - 0.1.+ (2023-03-13)</text><!--cluster api--><g id="cluster_api"><path d="M8.5,45.6348 L354.5,45.6348 A3.75,3.75 0 0 1 357,48.1348 L364,70.2559 L1641.5,70.2559 A2.5,2.5 0 0 1 1644,72.7559 L1644,962.1348 A2.5,2.5 0 0 1 1641.5,964.6348 L8.5,964.6348 A2.5,2.5 0 0 1 6,962.1348 L6,48.1348 A2.5,2.5 0 0 1 8.5,45.6348 " fill="#F8F9F9" style="stroke:#000000;stroke-width:1.5;"/><line style="stroke:#000000;stroke-width:1.5;" x1="6" x2="364" y1="70.2559" y2="70.2559"/><text fill="#000000" font-family="sans-serif" font-size="14" font-weight="bold" lengthAdjust="spacing" textLength="345" x="10" y="62.7422">org.calypsonet.terminal.calypso.crypto.symmetric</text></g><!--cluster spi--><g id="cluster_spi"><path d="M566.5,90.6348 L588.5,90.6348 A3.75,3.75 0 0 1 591,93.1348 L598,115.2559 L1617.5,115.2559 A2.5,2.5 0 0 1 1620,117.7559 L1620,781.1348 A2.5,2.5 0 0 1 1617.5,783.6348 L566.5,783.6348 A2.5,2.5 0 0 1 564,781.1348 L564,93.1348 A2.5,2.5 0 0 1 566.5,90.6348 " fill="#F2F3F4" style="stroke:#000000;stroke-width:1.5;"/><line style="stroke:#000000;stroke-width:1.5;" x1="564" x2="598" y1="115.2559" y2="115.2559"/><text fill="#000000" font-family="sans-serif" font-size="14" font-weight="bold" lengthAdjust="spacing" textLength="21" x="568" y="107.7422">spi</text></g><!--class ApiProperties--><g id="elem_ApiProperties"><rect codeLine="54" fill="#FEFECE" height="66.6211" id="ApiProperties" rx="2.5" ry="2.5" style="stroke:#D4AC0D;stroke-width:2.0;" width="269" x="148.5" y="155.1348"/><ellipse cx="163.5" cy="171.1348" fill="#ADD1B2" rx="11" ry="11" style="stroke:#181818;stroke-width:1.0;"/><path d="M166.2656,167.0098 Q166.4219,166.791 166.6094,166.6816 Q166.7969,166.5723 167.0156,166.5723 Q167.3906,166.5723 167.625,166.8379 Q167.8594,167.0879 167.8594,167.6973 L167.8594,169.1504 Q167.8594,169.7598 167.625,170.0254 Q167.3906,170.291 167.0156,170.291 Q166.6719,170.291 166.4688,170.0879 Q166.2656,169.9004 166.1563,169.3848 Q166.1094,169.0254 165.9219,168.8379 Q165.5938,168.4629 164.9844,168.2441 Q164.375,168.0254 163.75,168.0254 Q162.9844,168.0254 162.3438,168.3535 Q161.7188,168.6816 161.2188,169.4316 Q160.7344,170.1816 160.7344,171.2129 L160.7344,172.3066 Q160.7344,173.541 161.625,174.3691 Q162.5156,175.1816 164.1094,175.1816 Q165.0469,175.1816 165.7031,174.9316 Q166.0938,174.7754 166.5156,174.3379 Q166.7813,174.0723 166.9219,173.9941 Q167.0781,173.916 167.2813,173.916 Q167.6094,173.916 167.8594,174.1816 Q168.125,174.4316 168.125,174.7754 Q168.125,175.1191 167.7813,175.5254 Q167.2813,176.1035 166.4844,176.4316 Q165.4063,176.8848 164.1094,176.8848 Q162.5938,176.8848 161.3906,176.2598 Q160.4063,175.7598 159.7188,174.6973 Q159.0313,173.6191 159.0313,172.3379 L159.0313,171.1816 Q159.0313,169.8535 159.6406,168.7129 Q160.2656,167.5566 161.3594,166.9473 Q162.4531,166.3223 163.6875,166.3223 Q164.4219,166.3223 165.0625,166.4941 Q165.7188,166.6504 166.2656,167.0098 Z " fill="#000000"/><ellipse cx="182.5" cy="170.6348" fill="#84BE84" rx="3" ry="3" style="stroke:#038048;stroke-width:1.0;"/><text fill="#000000" font-family="sans-serif" font-size="14" font-weight="bold" lengthAdjust="spacing" textLength="30" x="188.5" y="176.9316">final</text><text fill="#000000" font-family="sans-serif" font-size="14" lengthAdjust="spacing" textLength="192" x="222.5" y="176.9316">CryptoSymmetricApiProperties</text><line style="stroke:#D4AC0D;stroke-width:2.0;" x1="149.5" x2="416.5" y1="187.1348" y2="187.1348"/><ellipse cx="159.5" cy="201.9453" fill="none" rx="3" ry="3" style="stroke:#038048;stroke-width:1.0;"/><text fill="#000000" font-family="sans-serif" font-size="14" font-weight="bold" lengthAdjust="spacing" text-decoration="underline" textLength="30" x="168.5" y="206.2422">final</text><text fill="#000000" font-family="sans-serif" font-size="14" lengthAdjust="spacing" text-decoration="underline" textLength="101" x="202.5" y="206.2422">String VERSION</text><line style="stroke:#D4AC0D;stroke-width:2.0;" x1="149.5" x2="416.5" y1="213.7559" y2="213.7559"/></g><!--class SymmetricCryptoException--><g id="elem_SymmetricCryptoException"><rect codeLine="125" fill="#F4ECF7" height="100.4844" id="SymmetricCryptoException" rx="2.5" ry="2.5" style="stroke:#8E44AD;stroke-width:2.0;" width="422" x="647" y="848.6348"/><ellipse cx="764.25" cy="872.2559" fill="#ADD1B2" rx="11" ry="11" style="stroke:#181818;stroke-width:1.0;"/><path d="M767.0156,868.1309 Q767.1719,867.9121 767.3594,867.8027 Q767.5469,867.6934 767.7656,867.6934 Q768.1406,867.6934 768.375,867.959 Q768.6094,868.209 768.6094,868.8184 L768.6094,870.2715 Q768.6094,870.8809 768.375,871.1465 Q768.1406,871.4121 767.7656,871.4121 Q767.4219,871.4121 767.2188,871.209 Q767.0156,871.0215 766.9063,870.5059 Q766.8594,870.1465 766.6719,869.959 Q766.3438,869.584 765.7344,869.3652 Q765.125,869.1465 764.5,869.1465 Q763.7344,869.1465 763.0938,869.4746 Q762.4688,869.8027 761.9688,870.5527 Q761.4844,871.3027 761.4844,872.334 L761.4844,873.4277 Q761.4844,874.6621 762.375,875.4902 Q763.2656,876.3027 764.8594,876.3027 Q765.7969,876.3027 766.4531,876.0527 Q766.8438,875.8965 767.2656,875.459 Q767.5313,875.1934 767.6719,875.1152 Q767.8281,875.0371 768.0313,875.0371 Q768.3594,875.0371 768.6094,875.3027 Q768.875,875.5527 768.875,875.8965 Q768.875,876.2402 768.5313,876.6465 Q768.0313,877.2246 767.2344,877.5527 Q766.1563,878.0059 764.8594,878.0059 Q763.3438,878.0059 762.1406,877.3809 Q761.1563,876.8809 760.4688,875.8184 Q759.7813,874.7402 759.7813,873.459 L759.7813,872.3027 Q759.7813,870.9746 760.3906,869.834 Q761.0156,868.6777 762.1094,868.0684 Q763.2031,867.4434 764.4375,867.4434 Q765.1719,867.4434 765.8125,867.6152 Q766.4688,867.7715 767.0156,868.1309 Z " fill="#000000"/><ellipse cx="789.75" cy="871.7559" fill="#84BE84" rx="3" ry="3" style="stroke:#038048;stroke-width:1.0;"/><text fill="#000000" font-family="sans-serif" font-size="14" lengthAdjust="spacing" textLength="77" x="841.25" y="868.7422">&#171;Exception&#187;</text><text fill="#000000" font-family="sans-serif" font-size="14" lengthAdjust="spacing" textLength="168" x="795.75" y="887.3633">SymmetricCryptoException</text><line style="stroke:#8E44AD;stroke-width:2.0;" x1="648" x2="1068" y1="895.877" y2="895.877"/><line style="stroke:#8E44AD;stroke-width:2.0;" x1="648" x2="1068" y1="903.877" y2="903.877"/><ellipse cx="658" cy="918.6875" fill="#84BE84" rx="3" ry="3" style="stroke:#038048;stroke-width:1.0;"/><text fill="#000000" font-family="sans-serif" font-size="14" lengthAdjust="spacing" textLength="280" x="667" y="922.9844">SymmetricCryptoException (String message)</text><ellipse cx="658" cy="937.3086" fill="#84BE84" rx="3" ry="3" style="stroke:#038048;stroke-width:1.0;"/><text fill="#000000" font-family="sans-serif" font-size="14" lengthAdjust="spacing" textLength="396" x="667" y="941.6055">SymmetricCryptoException (String message, Throwable cause)</text></g><!--class SymmetricCryptoIOException--><g id="elem_SymmetricCryptoIOException"><rect codeLine="126" fill="#F4ECF7" height="100.4844" id="SymmetricCryptoIOException" rx="2.5" ry="2.5" style="stroke:#8E44AD;stroke-width:2.0;" width="436" x="1104" y="848.6348"/><ellipse cx="1221.25" cy="872.2559" fill="#ADD1B2" rx="11" ry="11" style="stroke:#181818;stroke-width:1.0;"/><path d="M1224.0156,868.1309 Q1224.1719,867.9121 1224.3594,867.8027 Q1224.5469,867.6934 1224.7656,867.6934 Q1225.1406,867.6934 1225.375,867.959 Q1225.6094,868.209 1225.6094,868.8184 L1225.6094,870.2715 Q1225.6094,870.8809 1225.375,871.1465 Q1225.1406,871.4121 1224.7656,871.4121 Q1224.4219,871.4121 1224.2188,871.209 Q1224.0156,871.0215 1223.9063,870.5059 Q1223.8594,870.1465 1223.6719,869.959 Q1223.3438,869.584 1222.7344,869.3652 Q1222.125,869.1465 1221.5,869.1465 Q1220.7344,869.1465 1220.0938,869.4746 Q1219.4688,869.8027 1218.9688,870.5527 Q1218.4844,871.3027 1218.4844,872.334 L1218.4844,873.4277 Q1218.4844,874.6621 1219.375,875.4902 Q1220.2656,876.3027 1221.8594,876.3027 Q1222.7969,876.3027 1223.4531,876.0527 Q1223.8438,875.8965 1224.2656,875.459 Q1224.5313,875.1934 1224.6719,875.1152 Q1224.8281,875.0371 1225.0313,875.0371 Q1225.3594,875.0371 1225.6094,875.3027 Q1225.875,875.5527 1225.875,875.8965 Q1225.875,876.2402 1225.5313,876.6465 Q1225.0313,877.2246 1224.2344,877.5527 Q1223.1563,878.0059 1221.8594,878.0059 Q1220.3438,878.0059 1219.1406,877.3809 Q1218.1563,876.8809 1217.4688,875.8184 Q1216.7813,874.7402 1216.7813,873.459 L1216.7813,872.3027 Q1216.7813,870.9746 1217.3906,869.834 Q1218.0156,868.6777 1219.1094,868.0684 Q1220.2031,867.4434 1221.4375,867.4434 Q1222.1719,867.4434 1222.8125,867.6152 Q1223.4688,867.7715 1224.0156,868.1309 Z " fill="#000000"/><ellipse cx="1246.75" cy="871.7559" fill="#84BE84" rx="3" ry="3" style="stroke:#038048;stroke-width:1.0;"/><text fill="#000000" font-family="sans-serif" font-size="14" lengthAdjust="spacing" textLength="77" x="1305.25" y="868.7422">&#171;Exception&#187;</text><text fill="#000000" font-family="sans-serif" font-size="14" lengthAdjust="spacing" textLength="182" x="1252.75" y="887.3633">SymmetricCryptoIOException</text><line style="stroke:#8E44AD;stroke-width:2.0;" x1="1105" x2="1539" y1="895.877" y2="895.877"/><line style="stroke:#8E44AD;stroke-width:2.0;" x1="1105" x2="1539" y1="903.877" y2="903.877"/><ellipse cx="1115" cy="918.6875" fill="#84BE84" rx="3" ry="3" style="stroke:#038048;stroke-width:1.0;"/><text fill="#000000" font-family="sans-serif" font-size="14" lengthAdjust="spacing" textLength="294" x="1124" y="922.9844">SymmetricCryptoIOException (String message)</text><ellipse cx="1115" cy="937.3086" fill="#84BE84" rx="3" ry="3" style="stroke:#038048;stroke-width:1.0;"/><text fill="#000000" font-family="sans-serif" font-size="14" lengthAdjust="spacing" textLength="410" x="1124" y="941.6055">SymmetricCryptoIOException (String message, Throwable cause)</text></g><!--class SvCommandSecurityDataApi--><g id="elem_SvCommandSecurityDataApi"><rect codeLine="124" fill="#F4ECF7" height="196.9688" id="SvCommandSecurityDataApi" rx="2.5" ry="2.5" style="stroke:#8E44AD;stroke-width:2.0;" width="526" x="22" y="449.6348"/><ellipse cx="185.25" cy="465.6348" fill="#B4A7E5" rx="11" ry="11" style="stroke:#181818;stroke-width:1.0;"/><path d="M186.2031,462.2754 L186.2031,468.9316 L187.9219,468.9316 Q188.5313,468.9316 188.7969,469.166 Q189.0625,469.4004 189.0625,469.791 Q189.0625,470.166 188.7969,470.4004 Q188.5313,470.6348 187.9219,470.6348 L182.7813,470.6348 Q182.1719,470.6348 181.9063,470.4004 Q181.6406,470.166 181.6406,469.7754 Q181.6406,469.4004 181.9063,469.166 Q182.1719,468.9316 182.7813,468.9316 L184.5,468.9316 L184.5,462.2754 L182.7813,462.2754 Q182.1719,462.2754 181.9063,462.041 Q181.6406,461.8066 181.6406,461.416 Q181.6406,461.041 181.9063,460.8066 Q182.1719,460.5723 182.7813,460.5723 L187.9219,460.5723 Q188.5313,460.5723 188.7969,460.8066 Q189.0625,461.041 189.0625,461.416 Q189.0625,461.8066 188.7969,462.041 Q188.5313,462.2754 187.9219,462.2754 L186.2031,462.2754 Z " fill="#000000"/><ellipse cx="210.75" cy="465.1348" fill="#84BE84" rx="3" ry="3" style="stroke:#038048;stroke-width:1.0;"/><text fill="#000000" font-family="sans-serif" font-size="14" font-style="italic" lengthAdjust="spacing" textLength="180" x="216.75" y="471.4316">SvCommandSecurityDataApi</text><line style="stroke:#8E44AD;stroke-width:2.0;" x1="23" x2="547" y1="481.6348" y2="481.6348"/><line style="stroke:#8E44AD;stroke-width:2.0;" x1="23" x2="547" y1="489.6348" y2="489.6348"/><ellipse cx="33" cy="504.4453" fill="#84BE84" rx="3" ry="3" style="stroke:#038048;stroke-width:1.0;"/><text fill="#000000" font-family="sans-serif" font-size="14" lengthAdjust="spacing" textLength="165" x="42" y="508.7422">byte[] getSvGetRequest ()</text><ellipse cx="33" cy="523.0664" fill="#84BE84" rx="3" ry="3" style="stroke:#038048;stroke-width:1.0;"/><text fill="#000000" font-family="sans-serif" font-size="14" lengthAdjust="spacing" textLength="176" x="42" y="527.3633">byte[] getSvGetResponse ()</text><ellipse cx="33" cy="541.6875" fill="#84BE84" rx="3" ry="3" style="stroke:#038048;stroke-width:1.0;"/><text fill="#000000" font-family="sans-serif" font-size="14" lengthAdjust="spacing" textLength="246" x="42" y="545.9844">byte[] getSvCommandPartialRequest ()</text><text fill="#000000" font-family="sans-serif" font-size="14" lengthAdjust="spacing" textLength="4" x="42" y="564.6055">&#160;</text><ellipse cx="33" cy="578.9297" fill="#84BE84" rx="3" ry="3" style="stroke:#038048;stroke-width:1.0;"/><text fill="#000000" font-family="sans-serif" font-size="14" lengthAdjust="spacing" textLength="425" x="42" y="583.2266">SvCommandSecurityDataApi setSerialNumber (byte[] serialNumber)</text><ellipse cx="33" cy="597.5508" fill="#84BE84" rx="3" ry="3" style="stroke:#038048;stroke-width:1.0;"/><text fill="#000000" font-family="sans-serif" font-size="14" lengthAdjust="spacing" textLength="500" x="42" y="601.8477">SvCommandSecurityDataApi setTransactionNumber (byte[] transactionNumber)</text><ellipse cx="33" cy="616.1719" fill="#84BE84" rx="3" ry="3" style="stroke:#038048;stroke-width:1.0;"/><text fill="#000000" font-family="sans-serif" font-size="14" lengthAdjust="spacing" textLength="490" x="42" y="620.4688">SvCommandSecurityDataApi setTerminalChallenge (byte[] terminalChallenge)</text><ellipse cx="33" cy="634.793" fill="#84BE84" rx="3" ry="3" style="stroke:#038048;stroke-width:1.0;"/><text fill="#000000" font-family="sans-serif" font-size="14" lengthAdjust="spacing" textLength="446" x="42" y="639.0898">SvCommandSecurityDataApi setTerminalSvMac (byte[] terminalSvMac)</text></g><!--class SymmetricCryptoTransactionManagerFactorySpi--><g id="elem_SymmetricCryptoTransactionManagerFactorySpi"><rect codeLine="58" fill="#FEFECE" height="122.4844" id="SymmetricCryptoTransactionManagerFactorySpi" rx="2.5" ry="2.5" style="stroke:#D4AC0D;stroke-width:2.0;" width="1024" x="580" y="127.6348"/><ellipse cx="928.75" cy="143.6348" fill="#B4A7E5" rx="11" ry="11" style="stroke:#181818;stroke-width:1.0;"/><path d="M929.7031,140.2754 L929.7031,146.9316 L931.4219,146.9316 Q932.0313,146.9316 932.2969,147.166 Q932.5625,147.4004 932.5625,147.791 Q932.5625,148.166 932.2969,148.4004 Q932.0313,148.6348 931.4219,148.6348 L926.2813,148.6348 Q925.6719,148.6348 925.4063,148.4004 Q925.1406,148.166 925.1406,147.7754 Q925.1406,147.4004 925.4063,147.166 Q925.6719,146.9316 926.2813,146.9316 L928,146.9316 L928,140.2754 L926.2813,140.2754 Q925.6719,140.2754 925.4063,140.041 Q925.1406,139.8066 925.1406,139.416 Q925.1406,139.041 925.4063,138.8066 Q925.6719,138.5723 926.2813,138.5723 L931.4219,138.5723 Q932.0313,138.5723 932.2969,138.8066 Q932.5625,139.041 932.5625,139.416 Q932.5625,139.8066 932.2969,140.041 Q932.0313,140.2754 931.4219,140.2754 L929.7031,140.2754 Z " fill="#000000"/><ellipse cx="954.25" cy="143.1348" fill="#84BE84" rx="3" ry="3" style="stroke:#038048;stroke-width:1.0;"/><text fill="#000000" font-family="sans-serif" font-size="14" font-style="italic" lengthAdjust="spacing" textLength="307" x="960.25" y="149.4316">SymmetricCryptoTransactionManagerFactorySpi</text><line style="stroke:#D4AC0D;stroke-width:2.0;" x1="581" x2="1603" y1="159.6348" y2="159.6348"/><line style="stroke:#D4AC0D;stroke-width:2.0;" x1="581" x2="1603" y1="167.6348" y2="167.6348"/><ellipse cx="591" cy="182.4453" fill="#84BE84" rx="3" ry="3" style="stroke:#038048;stroke-width:1.0;"/><text fill="#000000" font-family="sans-serif" font-size="14" lengthAdjust="spacing" textLength="239" x="600" y="186.7422">boolean isExtendedModeSupported ()</text><ellipse cx="591" cy="201.0664" fill="#84BE84" rx="3" ry="3" style="stroke:#038048;stroke-width:1.0;"/><text fill="#000000" font-family="sans-serif" font-size="14" lengthAdjust="spacing" textLength="252" x="600" y="205.3633">int getMaxCardApduLengthSupported ()</text><text fill="#000000" font-family="sans-serif" font-size="14" lengthAdjust="spacing" textLength="4" x="600" y="223.9844">&#160;</text><ellipse cx="591" cy="238.3086" fill="#84BE84" rx="3" ry="3" style="stroke:#038048;stroke-width:1.0;"/><text fill="#000000" font-family="sans-serif" font-size="14" lengthAdjust="spacing" textLength="998" x="600" y="242.6055">SymmetricCryptoTransactionManagerSpi createTransactionManager (byte[] cardKeyDiversifier, boolean useExtendedMode, List&lt;byte[]&gt; transactionAuditData)</text></g><!--class SymmetricCryptoTransactionManagerSpi--><g id="elem_SymmetricCryptoTransactionManagerSpi"><rect codeLine="64" fill="#FEFECE" height="439.043" id="SymmetricCryptoTransactionManagerSpi" rx="2.5" ry="2.5" style="stroke:#D4AC0D;stroke-width:2.0;" width="860" x="630" y="328.6348"/><ellipse cx="920.75" cy="344.6348" fill="#B4A7E5" rx="11" ry="11" style="stroke:#181818;stroke-width:1.0;"/><path d="M921.7031,341.2754 L921.7031,347.9316 L923.4219,347.9316 Q924.0313,347.9316 924.2969,348.166 Q924.5625,348.4004 924.5625,348.791 Q924.5625,349.166 924.2969,349.4004 Q924.0313,349.6348 923.4219,349.6348 L918.2813,349.6348 Q917.6719,349.6348 917.4063,349.4004 Q917.1406,349.166 917.1406,348.7754 Q917.1406,348.4004 917.4063,348.166 Q917.6719,347.9316 918.2813,347.9316 L920,347.9316 L920,341.2754 L918.2813,341.2754 Q917.6719,341.2754 917.4063,341.041 Q917.1406,340.8066 917.1406,340.416 Q917.1406,340.041 917.4063,339.8066 Q917.6719,339.5723 918.2813,339.5723 L923.4219,339.5723 Q924.0313,339.5723 924.2969,339.8066 Q924.5625,340.041 924.5625,340.416 Q924.5625,340.8066 924.2969,341.041 Q924.0313,341.2754 923.4219,341.2754 L921.7031,341.2754 Z " fill="#000000"/><ellipse cx="946.25" cy="344.1348" fill="#84BE84" rx="3" ry="3" style="stroke:#038048;stroke-width:1.0;"/><text fill="#000000" font-family="sans-serif" font-size="14" font-style="italic" lengthAdjust="spacing" textLength="259" x="952.25" y="350.4316">SymmetricCryptoTransactionManagerSpi</text><line style="stroke:#D4AC0D;stroke-width:2.0;" x1="631" x2="1489" y1="360.6348" y2="360.6348"/><line style="stroke:#D4AC0D;stroke-width:2.0;" x1="631" x2="1489" y1="368.6348" y2="368.6348"/><ellipse cx="641" cy="383.4453" fill="#84BE84" rx="3" ry="3" style="stroke:#038048;stroke-width:1.0;"/><text fill="#000000" font-family="sans-serif" font-size="14" lengthAdjust="spacing" textLength="236" x="650" y="387.7422">void preInitTerminalSessionContext ()</text><ellipse cx="641" cy="402.0664" fill="#84BE84" rx="3" ry="3" style="stroke:#038048;stroke-width:1.0;"/><text fill="#000000" font-family="sans-serif" font-size="14" lengthAdjust="spacing" textLength="224" x="650" y="406.3633">byte[] initTerminalSessionContext ()</text><ellipse cx="641" cy="420.6875" fill="#84BE84" rx="3" ry="3" style="stroke:#038048;stroke-width:1.0;"/><text fill="#000000" font-family="sans-serif" font-size="14" lengthAdjust="spacing" textLength="525" x="650" y="424.9844">void initTerminalSessionMac (byte[] openSecureSessionDataOut, byte kif, byte kvc)</text><ellipse cx="641" cy="439.3086" fill="#84BE84" rx="3" ry="3" style="stroke:#038048;stroke-width:1.0;"/><text fill="#000000" font-family="sans-serif" font-size="14" lengthAdjust="spacing" textLength="328" x="650" y="443.6055">byte[] updateTerminalSessionMac (byte[] cardApdu)</text><ellipse cx="641" cy="457.9297" fill="#84BE84" rx="3" ry="3" style="stroke:#038048;stroke-width:1.0;"/><text fill="#000000" font-family="sans-serif" font-size="14" lengthAdjust="spacing" textLength="227" x="650" y="462.2266">byte[] finalizeTerminalSessionMac ()</text><text fill="#000000" font-family="sans-serif" font-size="14" lengthAdjust="spacing" textLength="4" x="650" y="480.8477">&#160;</text><ellipse cx="641" cy="495.1719" fill="#84BE84" rx="3" ry="3" style="stroke:#038048;stroke-width:1.0;"/><text fill="#000000" font-family="sans-serif" font-size="14" lengthAdjust="spacing" textLength="241" x="650" y="499.4688">byte[] generateTerminalSessionMac ()</text><text fill="#000000" font-family="sans-serif" font-size="14" lengthAdjust="spacing" textLength="4" x="650" y="518.0898">&#160;</text><ellipse cx="641" cy="532.4141" fill="#84BE84" rx="3" ry="3" style="stroke:#038048;stroke-width:1.0;"/><text fill="#000000" font-family="sans-serif" font-size="14" lengthAdjust="spacing" textLength="160" x="650" y="536.7109">void activateEncryption ()</text><ellipse cx="641" cy="551.0352" fill="#84BE84" rx="3" ry="3" style="stroke:#038048;stroke-width:1.0;"/><text fill="#000000" font-family="sans-serif" font-size="14" lengthAdjust="spacing" textLength="176" x="650" y="555.332">void deactivateEncryption ()</text><text fill="#000000" font-family="sans-serif" font-size="14" lengthAdjust="spacing" textLength="4" x="650" y="573.9531">&#160;</text><ellipse cx="641" cy="588.2773" fill="#84BE84" rx="3" ry="3" style="stroke:#038048;stroke-width:1.0;"/><text fill="#000000" font-family="sans-serif" font-size="14" lengthAdjust="spacing" textLength="360" x="650" y="592.5742">boolean isCardSessionMacValid (byte[] cardSessionMac)</text><text fill="#000000" font-family="sans-serif" font-size="14" lengthAdjust="spacing" textLength="4" x="650" y="611.1953">&#160;</text><ellipse cx="641" cy="625.5195" fill="#84BE84" rx="3" ry="3" style="stroke:#038048;stroke-width:1.0;"/><text fill="#000000" font-family="sans-serif" font-size="14" lengthAdjust="spacing" textLength="472" x="650" y="629.8164">void computeSvCommandSecurityData (SvCommandSecurityDataApi data)</text><ellipse cx="641" cy="644.1406" fill="#84BE84" rx="3" ry="3" style="stroke:#038048;stroke-width:1.0;"/><text fill="#000000" font-family="sans-serif" font-size="14" lengthAdjust="spacing" textLength="292" x="650" y="648.4375">boolean isCardSvMacValid (byte[] cardSvMac)</text><text fill="#000000" font-family="sans-serif" font-size="14" lengthAdjust="spacing" textLength="4" x="650" y="667.0586">&#160;</text><ellipse cx="641" cy="681.3828" fill="#84BE84" rx="3" ry="3" style="stroke:#038048;stroke-width:1.0;"/><text fill="#000000" font-family="sans-serif" font-size="14" lengthAdjust="spacing" textLength="526" x="650" y="685.6797">byte[] cipherPinForPresentation (byte[] cardChallenge, byte[] pin, Byte kif, Byte kvc)</text><ellipse cx="641" cy="700.0039" fill="#84BE84" rx="3" ry="3" style="stroke:#038048;stroke-width:1.0;"/><text fill="#000000" font-family="sans-serif" font-size="14" lengthAdjust="spacing" textLength="659" x="650" y="704.3008">byte[] cipherPinForModification (byte[] cardChallenge, byte[] currentPin, byte[] newPin, Byte kif, Byte kvc)</text><ellipse cx="641" cy="718.625" fill="#84BE84" rx="3" ry="3" style="stroke:#038048;stroke-width:1.0;"/><text fill="#000000" font-family="sans-serif" font-size="14" lengthAdjust="spacing" textLength="834" x="650" y="722.9219">byte[] generateCipheredCardKey (byte[] cardChallenge, byte issuerKeyKif, byte issuerKeyKvc, byte targetKeyKif, byte targetKeyKvc)</text><text fill="#000000" font-family="sans-serif" font-size="14" lengthAdjust="spacing" textLength="4" x="650" y="741.543">&#160;</text><ellipse cx="641" cy="755.8672" fill="#84BE84" rx="3" ry="3" style="stroke:#038048;stroke-width:1.0;"/><text fill="#000000" font-family="sans-serif" font-size="14" lengthAdjust="spacing" textLength="119" x="650" y="760.1641">void synchronize ()</text></g><!--link SymmetricCryptoTransactionManagerFactorySpi to SymmetricCryptoTransactionManagerSpi--><g id="link_SymmetricCryptoTransactionManagerFactorySpi_SymmetricCryptoTransactionManagerSpi"><path codeLine="110" d="M1086.61,249.8758 C1084.7,271.1378 1082.44,296.4718 1080.04,323.2518 " fill="none" id="SymmetricCryptoTransactionManagerFactorySpi-to-SymmetricCryptoTransactionManagerSpi" style="stroke:#3498DB;stroke-width:2.0;stroke-dasharray:7.0,7.0;"/><polygon fill="#3498DB" points="1079.59,328.2688,1084.3755,319.6607,1080.0352,323.2886,1076.4073,318.9483,1079.59,328.2688" style="stroke:#3498DB;stroke-width:2.0;"/><polygon fill="#000000" points="1087.5541,294.2604,1091.288,285.5134,1085.4335,284.9892,1087.5541,294.2604" style="stroke:#000000;stroke-width:1.0;"/><text fill="#000000" font-family="sans-serif" font-size="13" lengthAdjust="spacing" textLength="40" x="1097" y="294.6631">provide</text></g><!--reverse link SvCommandSecurityDataApi to SymmetricCryptoTransactionManagerSpi--><g id="link_SvCommandSecurityDataApi_SymmetricCryptoTransactionManagerSpi"><path codeLine="112" d="M553.492,548.1348 C578.387,548.1348 604.009,548.1348 629.886,548.1348 " fill="none" id="SvCommandSecurityDataApi-backto-SymmetricCryptoTransactionManagerSpi" style="stroke:#27AE60;stroke-width:2.0;stroke-dasharray:7.0,7.0;"/><polygon fill="#27AE60" points="548.191,548.1348,557.191,552.1348,553.191,548.1348,557.191,544.1348,548.191,548.1348" style="stroke:#27AE60;stroke-width:2.0;"/><polygon fill="#000000" points="571,535.7803,580.0451,538.7192,580.0451,532.8413,571,535.7803" style="stroke:#000000;stroke-width:1.0;"/><text fill="#000000" font-family="sans-serif" font-size="13" lengthAdjust="spacing" textLength="21" x="585" y="541.1631">use</text></g><!--link SymmetricCryptoTransactionManagerSpi to SymmetricCryptoException--><g id="link_SymmetricCryptoTransactionManagerSpi_SymmetricCryptoException"><path codeLine="114" d="M933.217,767.8658 C916.937,795.9548 901.614,822.3908 889.1,843.9798 " fill="none" id="SymmetricCryptoTransactionManagerSpi-to-SymmetricCryptoException" style="stroke:#27AE60;stroke-width:2.0;stroke-dasharray:7.0,7.0;"/><polygon fill="#27AE60" points="886.473,848.5118,894.4468,842.7309,888.9803,844.1858,887.5253,838.7193,886.473,848.5118" style="stroke:#27AE60;stroke-width:2.0;"/><polygon fill="#000000" points="914.4926,813.6061,921.5712,807.2544,916.4858,804.3068,914.4926,813.6061" style="stroke:#000000;stroke-width:1.0;"/><text fill="#000000" font-family="sans-serif" font-size="13" lengthAdjust="spacing" textLength="38" x="926" y="814.6631">throws</text></g><!--link SymmetricCryptoTransactionManagerSpi to SymmetricCryptoIOException--><g id="link_SymmetricCryptoTransactionManagerSpi_SymmetricCryptoIOException"><path codeLine="115" d="M1224.44,767.8658 C1245.65,796.0718 1265.6,822.6118 1281.87,844.2498 " fill="none" id="SymmetricCryptoTransactionManagerSpi-to-SymmetricCryptoIOException" style="stroke:#27AE60;stroke-width:2.0;stroke-dasharray:7.0,7.0;"/><polygon fill="#27AE60" points="1285.07,848.5118,1282.8447,838.9176,1282.0595,844.5197,1276.4574,843.7344,1285.07,848.5118" style="stroke:#27AE60;stroke-width:2.0;"/><polygon fill="#000000" points="1266.0048,813.2767,1262.9181,804.2809,1258.2201,807.8132,1266.0048,813.2767" style="stroke:#000000;stroke-width:1.0;"/><text fill="#000000" font-family="sans-serif" font-size="13" lengthAdjust="spacing" textLength="38" x="1272" y="814.6631">throws</text></g><!--SRC=[dLXjSzeu4FxEhz2r7vgaCKc0b2QJPWPikPTfNfX0EvEvkxbHR06w6CadoIHSX_z-Qzdu1Mn2sWyTl7hsUNRNgvKSpNH06mZ-sIHOX4fmgf65lEp1qbJE62U1bTeiJov2BIorcCsebiop_Y5pOf6GWTznywJv4UsrZbjjwxXjdRJt6vJxI1kLnWVqvGiQ_OvlCFo0Hrj40OsaGaofY2haKtIEfbg7wlpeQAfdWIS28JtXKzNqnEneB8yqUGmeYIoVMbxYNM62dufDk1K6H1yrVlFfc76AxB-_tkE74-H-Ti_SipLp2xajj-rsrinjX4zn5w-ZEyZfEdt7MJEV8hjdkqvhpVm9zHsxRNSBvkkhss-etJdxxFGBrkz3Z5hT7lvq7DVAij1GBmAeYvuIZNp1FsZqBEGJUcPwYZXzHdCg5HCSYJ62NBcEPW6uDTGJuo6HP8OKl3qgz2AalRwGFfLsN57qldVcs8vR2Rmg0VkTNXUVLWBjCgFZdFHRbK1S0kB-MHkaJNxuredZBNZP0L4gmO-cp7lYL2bKfEr9APwBIy3qG8D0F6-m4Ezf8aN4_LJPnIwsSRLO2d4wFVlO0Sfxwh_2Tt4XgNzv2RGETh2zXJP3ucu7-g0nPT3eAsDU9b0TH3A4ZVAQS6XWHhk3RRUxLJi7VyQTJizPoMVsKWIFGVIwVWmo-VJTKxU_LNq5JNizrKwj9UMlabB-glGaHXdjCxUBtQtQ6JRTKwduohokljX5V66qUz17-3Lj0stPRNnQb5wKbPEPQD_TZl3jo4p545J9XA9tGawQ-HnkhkRmojPCvd0pcyFl454e7iC_pJp_wCL1eNS71-FOxU00sSPXkCBtGZQG8gHICwgCSycIqXYgdqeJpRmboic6GC4dw0U-7rxTtHheqlo_YbzbaHWAnY61CV4eoW98uXb9mXNnDCon6yB1Kxhm9EHYM28m98z2mAZdS5xW5mq72_Llu70OHc4efAO-sjiluq4KJQY-8IysaNulzADhoYTwkk5HTdirmZWqJrAYwUOQsdjSQFh7Nt26IlyRNJZCJEane_8GhHA852rcS8YkcT8NYUCbqZbfB_APTeWcUMRBNofgHJNdWlaebFIACprAksi8GnMSR07CBtgZe6bgR7SF8rA1lo5ULYbeEJwaNYHfkXWdV1Tfg1S0q1CRhtxDlUg0ej2FNqQzX9U-_sftqzJilqg2gWP9tIQKKrcZM-LcQX6_bJauOMusS7nyLzRCf_N8kbqHTtaUn0_8oIzL85-h3G_kMM6awN1kYzcCSD-y5wONyIj1UvLc61l8BxLeLLZpweZcDS6iC2oSKZbWt1Lo8AcYF9v4SIKA9FQK105iR9gq2LX3nWzHFskU_jRcAMh0ReIjwksY0GMG4CuWbafDS2SRl4LvrK2sYO3wTZ8ojWadTsK9g6_PjiXDSoyrQI9Xy9LGkIaEf-BLgmNtfb9ms0Z5bbmMXllgKBcum2yUDJrvUVadNvi-sPevLUeMYwT3BMOlFMTcqBamnlRVxdA8Hf3KS_oH0FM4mRl_vdokxhPcL5ZUabCHjNDMMvosvrKu6UgsR27Kh1trSFwLwdlwBtoEbMRv9aI5WYjQYqb51mGk4oGeC1PohOjC0G6Lu7ORpHuB9weg6FTtuoaSX6jaUdrbLyPqs6VxCcTSNtaZevc56so52RbiBECBOqyfuJ4pebIZyPRhLBDvkTjDuNtwYNeEzmCnZo-lbpie6Oc0ZdKiKvVm- -Gxzpo-0-tEkXbulZ4oHXrl20MalyfPt6wRhCbT_RhtSFSzkQgRv-7euHgNRkuaoJBvQyFFPT7ULFbQArvhv1irNgwjMlwzraX6ba7NLMGNT37N0lv_]--></g></svg>